<svg xmlns="http://www.w3.org/2000/svg" width="1000" height="520" viewBox="0 0 1000 520">
<defs>
  <linearGradient id="bg" x1="0" y1="0" x2="1" y2="1">
    <stop offset="0" stop-color="#071016"/><stop offset="1" stop-color="#0d1720"/>
  </linearGradient>
  <filter id="glow"><feGaussianBlur stdDeviation="3" result="b"/><feMerge><feMergeNode in="b"/><feMergeNode in="SourceGraphic"/></feMerge></filter>
</defs>
<rect width="1000" height="520" rx="24" fill="url(#bg)"/>
<rect x="22" y="22" width="956" height="476" rx="18" fill="#0b141d" stroke="#233244"/>
<text x="52" y="58" font-family="monospace" font-size="16" fill="#718096">PROJECT INTELLIGENCE // WHAT I BUILD</text>
<line x1="52" y1="76" x2="948" y2="76" stroke="#233244"/>
<g font-family="monospace">
  <rect x="52" y="104" width="270" height="105" rx="14" fill="#0e1a24" stroke="#1f6feb"/>
  <text x="72" y="132" font-size="13" fill="#58a6ff">01 // CLOUD TELEMETRY</text>
  <text x="72" y="158" font-size="14" fill="#dbe7f3">HONEYPOT → LOG ANALYTICS</text>
  <text x="72" y="182" font-size="14" fill="#39ff88">→ SENTINEL → THREAT MAP</text>

  <rect x="365" y="104" width="270" height="105" rx="14" fill="#0e1a24" stroke="#39ff88"/>
  <text x="385" y="132" font-size="13" fill="#39ff88">02 // ENDPOINT DEFENSE</text>
  <text x="385" y="158" font-size="14" fill="#dbe7f3">EVENTS → FIM → CORRELATION</text>
  <text x="385" y="182" font-size="14" fill="#58a6ff">→ MITRE → RESPONSE</text>

  <rect x="678" y="104" width="270" height="105" rx="14" fill="#0e1a24" stroke="#58a6ff"/>
  <text x="698" y="132" font-size="13" fill="#58a6ff">03 // API SECURITY</text>
  <text x="698" y="158" font-size="14" fill="#dbe7f3">AUTH → RBAC → RATE LIMIT</text>
  <text x="698" y="182" font-size="14" fill="#39ff88">→ SOC EVENTS</text>

  <rect x="52" y="236" width="430" height="105" rx="14" fill="#0e1a24" stroke="#39ff88"/>
  <text x="72" y="264" font-size="13" fill="#39ff88">04 // MALWARE ANALYSIS</text>
  <text x="72" y="290" font-size="14" fill="#dbe7f3">FAKE CAPTCHA → CLIPBOARD</text>
  <text x="72" y="314" font-size="14" fill="#58a6ff">→ POWERSHELL → PAYLOAD → ATT&amp;CK</text>

  <rect x="512" y="236" width="436" height="105" rx="14" fill="#0e1a24" stroke="#1f6feb"/>
  <text x="532" y="264" font-size="13" fill="#58a6ff">05 // RECON AUTOMATION</text>
  <text x="532" y="290" font-size="14" fill="#dbe7f3">ENUM → RESOLVE → HTTP → SCAN</text>
  <text x="532" y="314" font-size="14" fill="#39ff88">→ JS ANALYSIS → REPORT</text>

  <rect x="52" y="368" width="896" height="96" rx="14" fill="#081017" stroke="#26384a"/>
  <text x="76" y="396" font-size="13" fill="#718096">COMMON THREAD</text>
  <text x="76" y="428" font-size="18" fill="#f0f6fc">ATTACK / SIMULATE</text>
  <text x="286" y="428" font-size="18" fill="#58a6ff">→</text>
  <text x="320" y="428" font-size="18" fill="#f0f6fc">COLLECT TELEMETRY</text>
  <text x="568" y="428" font-size="18" fill="#58a6ff">→</text>
  <text x="602" y="428" font-size="18" fill="#f0f6fc">DETECT</text>
  <text x="704" y="428" font-size="18" fill="#58a6ff">→</text>
  <text x="738" y="428" font-size="18" fill="#39ff88">RESPOND</text>
</g>
</svg>