<svg xmlns="http://www.w3.org/2000/svg" width="1000" height="390" viewBox="0 0 1000 390">
<defs>
  <linearGradient id="bg" x1="0" y1="0" x2="1" y2="1">
    <stop offset="0" stop-color="#0b1017"/><stop offset="1" stop-color="#101923"/>
  </linearGradient>
  <linearGradient id="glow" x1="0" y1="0" x2="1" y2="0">
    <stop offset="0" stop-color="#39ff88"/><stop offset="1" stop-color="#58a6ff"/>
  </linearGradient>
  <pattern id="grid" width="28" height="28" patternUnits="userSpaceOnUse">
    <path d="M 28 0 L 0 0 0 28" fill="none" stroke="#ffffff" stroke-opacity=".035"/>
  </pattern>
  <style>
    .body{font:18px monospace;fill:#dbe7f3}.muted{font:18px monospace;fill:#6b7d90}
    .ok{font:18px monospace;fill:#39ff88}.title{font:bold 22px monospace;fill:#f0f6fc}
    .small{font:13px monospace;fill:#718096}.blue{font:14px monospace;fill:#58a6ff}
  </style>
</defs>
<rect width="1000" height="390" rx="22" fill="url(#bg)"/>
<rect width="1000" height="390" rx="22" fill="url(#grid)"/>
<rect x="24" y="24" width="952" height="342" rx="16" fill="none" stroke="#233244"/>
<circle cx="52" cy="54" r="6" fill="#ff5f56"/><circle cx="72" cy="54" r="6" fill="#ffbd2e"/><circle cx="92" cy="54" r="6" fill="#27c93f"/>
<text x="120" y="60" class="title">THARUN // SECURITY OPERATIONS CONSOLE</text>
<text x="64" y="102" class="blue">root@tharunehh.github.io:~$ ./profile --live</text>
<line x1="64" y1="116" x2="936" y2="116" stroke="url(#glow)" stroke-opacity=".55"/>

    <text x="64" y="142" class="muted">&gt;</text>
    <text x="92" y="142" class="body">blue_team             </text>
    <text x="410" y="142" class="ok">[ ONLINE ]</text>
    <text x="64" y="184" class="muted">&gt;</text>
    <text x="92" y="184" class="body">purple_team           </text>
    <text x="410" y="184" class="ok">[ ONLINE ]</text>
    <text x="64" y="226" class="muted">&gt;</text>
    <text x="92" y="226" class="body">threat_hunting        </text>
    <text x="410" y="226" class="ok">[ ONLINE ]</text>
    <text x="64" y="268" class="muted">&gt;</text>
    <text x="92" y="268" class="body">detection_engineering </text>
    <text x="410" y="268" class="ok">[ ONLINE ]</text>
<rect x="650" y="138" width="260" height="158" rx="12" fill="#0a0f14" stroke="#263747"/>
<text x="674" y="166" class="small">LIVE TELEMETRY</text>
<text x="674" y="204" class="title">5</text><text x="740" y="204" class="small">REPOS</text>
<text x="674" y="238" class="title">0</text><text x="740" y="238" class="small">FOLLOWERS</text>
<text x="674" y="272" class="title">1</text><text x="740" y="272" class="small">STARS</text>
<text x="64" y="340" class="small">github_sync: OK  //  api: github.com  //  mode: autonomous</text>
</svg>